<svg width="171" height="112" viewBox="0 0 171 112" fill="none" xmlns="http://www.w3.org/2000/svg">
<mask id="path-1-inside-1_720_805" fill="white">
<path fill-rule="evenodd" clip-rule="evenodd" d="M8 0C3.58172 0 0 3.58172 0 8V76C0 80.4183 3.58171 84 7.99999 84H62.6338C62.6544 84.0293 62.676 84.0583 62.6984 84.087L83.9255 111.189C84.7262 112.211 86.2738 112.211 87.0745 111.189L108.302 84.087C108.324 84.0583 108.346 84.0293 108.366 84H162.089C166.508 84 170.089 80.4183 170.089 76V8C170.089 3.58172 166.508 0 162.089 0H8Z"/>
</mask>
<path fill-rule="evenodd" clip-rule="evenodd" d="M8 0C3.58172 0 0 3.58172 0 8V76C0 80.4183 3.58171 84 7.99999 84H62.6338C62.6544 84.0293 62.676 84.0583 62.6984 84.087L83.9255 111.189C84.7262 112.211 86.2738 112.211 87.0745 111.189L108.302 84.087C108.324 84.0583 108.346 84.0293 108.366 84H162.089C166.508 84 170.089 80.4183 170.089 76V8C170.089 3.58172 166.508 0 162.089 0H8Z" fill="#FFFEFB"/>
<path d="M62.6338 84L63.4512 83.424L63.1525 83H62.6338V84ZM62.6984 84.087L61.9112 84.7035L61.9112 84.7036L62.6984 84.087ZM83.9255 111.189L84.7127 110.572L84.7127 110.572L83.9255 111.189ZM87.0745 111.189L86.2873 110.572L86.2873 110.572L87.0745 111.189ZM108.302 84.087L107.514 83.4703L107.514 83.4703L108.302 84.087ZM108.366 84V83H107.847L107.549 83.424L108.366 84ZM1 8C1 4.13401 4.13401 1 8 1V-1C3.02944 -1 -1 3.02944 -1 8H1ZM1 76V8H-1V76H1ZM7.99999 83C4.134 83 1 79.866 1 76H-1C-1 80.9706 3.02943 85 7.99999 85V83ZM62.6338 83H7.99999V85H62.6338V83ZM61.8164 84.576C61.8467 84.6191 61.8783 84.6616 61.9112 84.7035L63.4857 83.4704C63.4736 83.4549 63.4621 83.4394 63.4512 83.424L61.8164 84.576ZM61.9112 84.7036L83.1382 111.806L84.7127 110.572L63.4857 83.4704L61.9112 84.7036ZM83.1382 111.806C84.3393 113.339 86.6607 113.339 87.8618 111.806L86.2873 110.572C85.8869 111.084 85.1131 111.084 84.7127 110.572L83.1382 111.806ZM87.8618 111.806L109.089 84.7036L107.514 83.4703L86.2873 110.572L87.8618 111.806ZM109.089 84.7036C109.122 84.6617 109.153 84.6191 109.184 84.576L107.549 83.424C107.538 83.4394 107.526 83.4549 107.514 83.4703L109.089 84.7036ZM162.089 83H108.366V85H162.089V83ZM169.089 76C169.089 79.866 165.955 83 162.089 83V85C167.06 85 171.089 80.9706 171.089 76H169.089ZM169.089 8V76H171.089V8H169.089ZM162.089 1C165.955 1 169.089 4.134 169.089 8H171.089C171.089 3.02944 167.06 -1 162.089 -1V1ZM8 1H162.089V-1H8V1Z" fill="#E7E3DD" mask="url(#path-1-inside-1_720_805)"/>
</svg>
