<svg width="220" height="218" viewBox="0 0 220 218" fill="none" xmlns="http://www.w3.org/2000/svg">
<path d="M105.037 2.83672C108.112 1.07902 111.888 1.07902 114.963 2.83672L200.225 51.5744C203.34 53.355 205.263 56.668 205.263 60.2561V157.559C205.263 161.147 203.34 164.46 200.225 166.241L114.963 214.979C111.888 216.736 108.112 216.736 105.037 214.979L19.7746 166.241C16.6595 164.46 14.7372 161.147 14.7372 157.559V60.2561C14.7372 56.668 16.6595 53.355 19.7746 51.5744L105.037 2.83672Z" fill="#E7E3DD"/>
<path d="M105.037 12.7374C108.112 10.9797 111.888 10.9797 114.963 12.7374L191.565 56.5247C194.68 58.3053 196.603 61.6183 196.603 65.2064V152.609C196.603 156.197 194.68 159.51 191.565 161.291L114.963 205.078C111.888 206.836 108.112 206.836 105.037 205.078L28.4348 161.291C25.3198 159.51 23.3975 156.197 23.3975 152.609V65.2064C23.3975 61.6183 25.3198 58.3053 28.4348 56.5247L105.037 12.7374Z" fill="#D2CBC1"/>
<path fill-rule="evenodd" clip-rule="evenodd" d="M110 47.0886C94.1944 47.0886 81.3816 59.9015 81.3816 75.707V96.7367C74.7966 98.7186 70 104.829 70 112.06V154.727C70 163.563 77.1634 170.727 86 170.727H134C142.837 170.727 150 163.563 150 154.727V112.06C150 104.829 145.203 98.7185 138.618 96.7366V75.707C138.618 59.9015 125.805 47.0886 110 47.0886ZM96.6669 76.9285V96.06H123.334V76.9285C123.334 69.5647 117.364 63.5952 110 63.5952C102.636 63.5952 96.6669 69.5647 96.6669 76.9285ZM122.266 126.458C122.266 131.342 119.413 135.559 115.282 137.533C115.316 137.776 115.333 138.025 115.333 138.278V152.955C115.333 155.901 112.946 158.289 110 158.289C107.055 158.289 104.667 155.901 104.667 152.955V138.278C104.667 138.025 104.684 137.776 104.718 137.533C100.587 135.559 97.7331 131.342 97.7331 126.458C97.7331 119.683 103.225 114.191 110 114.191C116.774 114.191 122.266 119.683 122.266 126.458Z" fill="#8F8C88"/>
</svg>
