<svg width="60" height="604" viewBox="0 0 161 134" fill="none" xmlns="http://www.w3.org/2000/svg">
<path fill-rule="evenodd" clip-rule="evenodd" d="M0.235107 9.20194C0.235107 8.69857 0.475642 8.23389 0.901635 7.96574C14.4125 -0.539092 47.6842 -9.00809 79.1534 21.5175C79.748 22.0943 80.7222 22.0943 81.3169 21.5175C112.786 -9.00809 146.058 -0.539092 159.569 7.96574C159.995 8.23389 160.235 8.69857 160.235 9.20194V130.489C160.235 131.825 158.579 132.528 157.538 131.691C136.55 114.821 98.5154 125.667 80.8621 133.818C80.4558 134.005 80.0144 134.005 79.6082 133.818C61.9548 125.667 23.9202 114.821 2.93239 131.691C1.8908 132.528 0.235107 131.825 0.235107 130.489V9.20194Z" fill="#FFD12D"/>
<path fill-rule="evenodd" clip-rule="evenodd" d="M115.686 34.264C115.1 33.6783 114.15 33.6783 113.564 34.264L71.4368 76.3916L46.9063 51.8611C46.3205 51.2753 45.3707 51.2753 44.785 51.8611L34.7177 61.9284C34.1319 62.5142 34.1319 63.4639 34.7177 64.0497L60.209 89.541C60.2388 89.577 60.2705 89.6118 60.3042 89.6455L70.3715 99.7128C70.6534 99.9947 71.0195 100.141 71.3889 100.152C71.7902 100.166 72.196 100.019 72.5024 99.7131L82.5697 89.6458C82.6044 89.611 82.6372 89.575 82.6678 89.5378L125.753 46.4527C126.339 45.8669 126.339 44.9171 125.753 44.3313L115.686 34.264Z" fill="#FFE792"/>
</svg>
