<svg width="101" height="156" viewBox="0 0 101 156" fill="none" xmlns="http://www.w3.org/2000/svg">
<path fill-rule="evenodd" clip-rule="evenodd" d="M50.8105 0.726196C31.0537 0.726196 15.0376 16.7423 15.0376 36.4991V62.0375C7.03536 62.9197 0.810547 69.7031 0.810547 77.9404V139.274C0.810547 148.11 7.97399 155.274 16.8105 155.274H84.8105C93.6471 155.274 100.811 148.11 100.811 139.274V77.9404C100.811 69.7031 94.5857 62.9197 86.5835 62.0375V36.4991C86.5835 16.7423 70.5674 0.726196 50.8105 0.726196ZM34.1439 38.026V61.9404H67.4772V38.026C67.4772 28.8213 60.0153 21.3593 50.8105 21.3593C41.6058 21.3593 34.1439 28.8213 34.1439 38.026ZM66.1439 99.9381C66.1439 106.043 62.5764 111.314 57.4126 113.781C57.4552 114.086 57.4772 114.397 57.4772 114.713V133.06C57.4772 136.741 54.4925 139.726 50.8106 139.726C47.1287 139.726 44.1439 136.741 44.1439 133.06V114.713C44.1439 114.397 44.1659 114.086 44.2085 113.781C39.0446 111.314 35.4772 106.043 35.4772 99.9381C35.4772 91.4697 42.3422 84.6048 50.8105 84.6048C59.2789 84.6048 66.1439 91.4697 66.1439 99.9381Z" fill="#FFBF1A"/>
</svg>
