<svg width="17" height="16" viewBox="0 0 17 16" fill="none" xmlns="http://www.w3.org/2000/svg">
<path d="M8.79932 9.0625L11.216 11.4792C11.3688 11.6319 11.5458 11.7049 11.7472 11.6979C11.9486 11.691 12.1257 11.6111 12.2785 11.4583C12.4313 11.3056 12.5077 11.1285 12.5077 10.9271C12.5077 10.7257 12.4313 10.5489 12.2785 10.3967L9.86182 7.98958L12.2785 5.58244C12.4313 5.43026 12.5077 5.25347 12.5077 5.05208C12.5077 4.85069 12.4313 4.67361 12.2785 4.52083C12.1257 4.36806 11.9486 4.29167 11.7472 4.29167C11.5458 4.29167 11.3688 4.36806 11.216 4.52083L8.79932 6.9375L6.38265 4.52083C6.22987 4.36806 6.05626 4.29167 5.86182 4.29167C5.66737 4.29167 5.49376 4.36806 5.34098 4.52083C5.18821 4.67361 5.11182 4.85069 5.11182 5.05208C5.11182 5.25347 5.1876 5.43056 5.33917 5.58333L7.73682 8L5.32015 10.4167C5.16737 10.5694 5.09446 10.7431 5.1014 10.9375C5.10834 11.1319 5.18821 11.3056 5.34098 11.4583C5.49376 11.6111 5.67084 11.6875 5.87223 11.6875C6.07362 11.6875 6.2501 11.6117 6.40167 11.4601L8.79932 9.0625ZM8.80507 16C7.70401 16 6.66737 15.7917 5.69515 15.375C4.72293 14.9583 3.87223 14.3854 3.14307 13.6562C2.4139 12.9271 1.84098 12.0767 1.42432 11.105C1.00765 10.1334 0.799316 9.09519 0.799316 7.99046C0.799316 6.88571 1.00765 5.85069 1.42432 4.88542C1.84098 3.92014 2.4139 3.07292 3.14307 2.34375C3.87223 1.61458 4.72264 1.04167 5.69427 0.625C6.66593 0.208333 7.70412 0 8.80886 0C9.91361 0 10.9486 0.208333 11.9139 0.625C12.8792 1.04167 13.7264 1.61458 14.4556 2.34375C15.1847 3.07292 15.7576 3.92169 16.1743 4.89008C16.591 5.85849 16.7993 6.89321 16.7993 7.99425C16.7993 9.09531 16.591 10.1319 16.1743 11.1042C15.7576 12.0764 15.1847 12.9271 14.4556 13.6562C13.7264 14.3854 12.8776 14.9583 11.9092 15.375C10.9408 15.7917 9.90611 16 8.80507 16Z" fill="#8F8C88"/>
</svg>
