<svg width="12" height="20" viewBox="0 0 12 20" fill="none" xmlns="http://www.w3.org/2000/svg">
<path d="M3.37466 9.99999L10.7247 17.35C10.9747 17.6 11.0955 17.8917 11.0872 18.225C11.0788 18.5583 10.9497 18.85 10.6997 19.1C10.4497 19.35 10.158 19.475 9.82466 19.475C9.49133 19.475 9.19966 19.35 8.94966 19.1L1.24966 11.425C1.04966 11.225 0.899658 11 0.799658 10.75C0.699658 10.5 0.649658 10.25 0.649658 9.99999C0.649658 9.74999 0.699658 9.49999 0.799658 9.24999C0.899658 8.99999 1.04966 8.77499 1.24966 8.57499L8.94966 0.874988C9.19966 0.624988 9.49549 0.504155 9.83716 0.512488C10.1788 0.520822 10.4747 0.649988 10.7247 0.899988C10.9747 1.14999 11.0997 1.44165 11.0997 1.77499C11.0997 2.10832 10.9747 2.39999 10.7247 2.64999L3.37466 9.99999Z" fill="#252525"/>
</svg>
