<svg width="160" height="194" viewBox="0 0 160 194" fill="none" xmlns="http://www.w3.org/2000/svg">
<path d="M62 15.5C62 6.93959 68.9396 0 77.5 0C86.0604 0 93 6.93959 93 15.5V33.0667H62V15.5Z" fill="#2F2D2A"/>
<mask id="path-2-inside-1_324_978" fill="white">
<path fill-rule="evenodd" clip-rule="evenodd" d="M77.5 21.7C43.2583 21.7 15.5 49.4583 15.5 83.7V131.233H14.4667C6.47695 131.233 0 137.71 0 145.7C0 153.69 6.47695 160.167 14.4667 160.167H140.533C148.523 160.167 155 153.69 155 145.7C155 137.71 148.523 131.233 140.533 131.233H139.5V83.6999C139.5 49.4583 111.742 21.7 77.5 21.7Z"/>
</mask>
<path d="M15.5 131.233V146.233H30.5V131.233H15.5ZM139.5 131.233H124.5V146.233H139.5V131.233ZM30.5 83.7C30.5 57.7426 51.5426 36.7 77.5 36.7V6.69995C34.9741 6.69995 0.5 41.1741 0.5 83.7H30.5ZM30.5 131.233V83.7H0.5V131.233H30.5ZM14.4667 146.233H15.5V116.233H14.4667V146.233ZM15 145.7C15 145.994 14.7612 146.233 14.4667 146.233V116.233C-1.80732 116.233 -15 129.426 -15 145.7H15ZM14.4667 145.167C14.7612 145.167 15 145.405 15 145.7H-15C-15 161.974 -1.80731 175.167 14.4667 175.167V145.167ZM140.533 145.167H14.4667V175.167H140.533V145.167ZM140 145.7C140 145.405 140.239 145.167 140.533 145.167V175.167C156.807 175.167 170 161.974 170 145.7H140ZM140.533 146.233C140.239 146.233 140 145.994 140 145.7H170C170 129.426 156.807 116.233 140.533 116.233V146.233ZM139.5 146.233H140.533V116.233H139.5V146.233ZM124.5 83.6999V131.233H154.5V83.6999H124.5ZM77.5 36.7C103.457 36.7 124.5 57.7426 124.5 83.6999H154.5C154.5 41.174 120.026 6.69995 77.5 6.69995V36.7Z" fill="#2F2D2A" mask="url(#path-2-inside-1_324_978)"/>
<path d="M103.333 167.4C103.333 170.792 102.665 174.152 101.367 177.286C100.069 180.42 98.1659 183.268 95.767 185.667C93.3682 188.066 90.5203 189.969 87.3861 191.267C84.2518 192.565 80.8926 193.233 77.5001 193.233C74.1076 193.233 70.7483 192.565 67.6141 191.267C64.4798 189.969 61.632 188.066 59.2332 185.667C56.8343 183.268 54.9314 180.42 53.6332 177.286C52.3349 174.152 51.6667 170.792 51.6667 167.4L77.5001 167.4H103.333Z" fill="#2F2D2A"/>
<circle cx="129.124" cy="51.7" r="30" fill="#FFD12D"/>
</svg>
