<svg width="340" height="238" viewBox="0 0 340 238" fill="none" xmlns="http://www.w3.org/2000/svg">
<rect width="340" height="180" rx="20" fill="#F4F0EB"/>
<path d="M130.908 232.147C132.91 234.703 136.779 234.703 138.781 232.147L180.475 178.913C183.046 175.631 180.707 170.83 176.539 170.83H93.1502C88.9816 170.83 86.6434 175.631 89.2138 178.913L130.908 232.147Z" fill="#F4F0EB"/>
<path d="M61.9736 68.044V62.092H64.5656V68.044H67.2536V62.092H69.8456V68.044H77.0696V70.204H57.7496V68.044H61.9736ZM60.5816 53.956H74.3096V65.308H71.6456V56.116H60.5816V53.956ZM86.702 62.788V61.324H81.326V52.66H94.838V54.676H83.942V55.972H94.838V57.916H83.942V59.308H94.838V61.324H89.342V62.788H97.67V64.876H78.374V62.788H86.702ZM82.406 69.94C82.406 69.108 82.646 68.388 83.126 67.78C83.606 67.156 84.27 66.676 85.118 66.34C85.982 66.004 86.966 65.836 88.07 65.836C89.174 65.836 90.158 66.004 91.022 66.34C91.886 66.676 92.558 67.156 93.038 67.78C93.518 68.388 93.758 69.108 93.758 69.94C93.758 70.74 93.51 71.46 93.014 72.1C92.534 72.74 91.862 73.236 90.998 73.588C90.134 73.956 89.158 74.14 88.07 74.14C86.982 74.14 86.006 73.956 85.142 73.588C84.278 73.236 83.606 72.74 83.126 72.1C82.646 71.46 82.406 70.74 82.406 69.94ZM84.998 69.94C84.998 70.564 85.278 71.076 85.838 71.476C86.414 71.86 87.158 72.052 88.07 72.052C88.982 72.052 89.726 71.86 90.302 71.476C90.878 71.076 91.166 70.564 91.166 69.94C91.166 69.364 90.878 68.884 90.302 68.5C89.726 68.1 88.982 67.9 88.07 67.9C87.158 67.9 86.414 68.092 85.838 68.476C85.278 68.86 84.998 69.348 84.998 69.94ZM115.654 52.084V60.46H118.918V62.668H115.654V72.724H113.014V52.084H115.654ZM102.622 60.916C103.07 60.276 103.366 59.74 103.51 59.308C103.67 58.876 103.75 58.38 103.75 57.82V53.452H106.318V57.82C106.318 58.396 106.39 58.9 106.534 59.332C106.678 59.748 106.974 60.276 107.422 60.916L111.334 66.388L109.366 67.78L105.454 62.308C105.294 62.084 105.15 61.868 105.022 61.66C104.91 61.868 104.766 62.084 104.59 62.308L100.678 67.78L98.7104 66.388L102.622 60.916ZM126.799 67.804V61.228H129.415V67.804H139.015V69.964H119.695V67.804H126.799ZM122.143 53.812H135.775V65.02H133.111V55.972H122.143V53.812ZM156.951 52.036V60.34H160.095V62.524H156.951V72.7H154.311V52.036H156.951ZM140.847 65.068C142.335 64.684 143.679 64.1 144.879 63.316C146.079 62.516 147.039 61.5 147.759 60.268C148.479 59.036 148.839 57.628 148.839 56.044H141.447V53.884H151.359V56.044C151.359 58.012 150.895 59.788 149.967 61.372C149.039 62.94 147.823 64.236 146.319 65.26C144.815 66.284 143.191 67.02 141.447 67.468L140.847 65.068ZM167.267 53.044H177.299V62.5H167.267V53.044ZM169.067 64.9H171.635V70.9H176.099V73.156H169.067V64.9ZM174.707 60.388V55.156H169.859V60.388H174.707ZM175.763 65.908H179.051V64.084H181.115V65.908H184.355V67.876H183.203C183.587 68.468 183.779 69.108 183.779 69.796C183.779 70.9 183.435 71.796 182.747 72.484C182.059 73.188 181.171 73.54 180.083 73.54C178.995 73.54 178.099 73.188 177.395 72.484C176.691 71.796 176.339 70.9 176.339 69.796C176.339 69.108 176.531 68.468 176.915 67.876H175.763V65.908ZM178.619 69.796C178.619 70.34 178.747 70.772 179.003 71.092C179.275 71.396 179.635 71.548 180.083 71.548C180.531 71.548 180.883 71.396 181.139 71.092C181.395 70.772 181.523 70.34 181.523 69.796C181.523 69.236 181.395 68.796 181.139 68.476C180.883 68.14 180.531 67.972 180.083 67.972C179.635 67.972 179.275 68.14 179.003 68.476C178.747 68.796 178.619 69.236 178.619 69.796ZM180.611 52.084H183.251V56.668H186.203V58.828H183.251V63.22H180.611V52.084ZM206.467 62.956V65.068H187.171V62.956H206.467ZM190.147 66.676H192.787V70.9H203.827V73.036H190.147V66.676ZM190.987 56.692C190.987 55.748 191.227 54.924 191.707 54.22C192.203 53.5 192.883 52.948 193.747 52.564C194.627 52.164 195.635 51.964 196.771 51.964C197.923 51.964 198.939 52.164 199.819 52.564C200.715 52.948 201.411 53.5 201.907 54.22C202.403 54.924 202.651 55.748 202.651 56.692C202.651 57.572 202.403 58.372 201.907 59.092C201.411 59.796 200.715 60.356 199.819 60.772C198.923 61.172 197.907 61.372 196.771 61.372C195.651 61.372 194.651 61.172 193.771 60.772C192.891 60.356 192.203 59.796 191.707 59.092C191.227 58.372 190.987 57.572 190.987 56.692ZM193.507 56.692C193.507 57.428 193.811 58.036 194.419 58.516C195.027 58.98 195.819 59.212 196.795 59.212C197.787 59.212 198.587 58.972 199.195 58.492C199.819 58.012 200.131 57.412 200.131 56.692C200.131 55.892 199.827 55.26 199.219 54.796C198.611 54.332 197.803 54.1 196.795 54.1C195.803 54.1 195.003 54.332 194.395 54.796C193.803 55.26 193.507 55.892 193.507 56.692ZM213.399 61.732H221.223V57.652H223.839V61.732H232.623V63.82H213.399V61.732ZM220.359 68.212C221.271 67.636 221.727 66.996 221.727 66.292V65.164H224.271V66.292C224.271 66.98 224.727 67.62 225.639 68.212L231.039 71.572L229.791 73.54L224.391 70.18C223.847 69.844 223.383 69.444 222.999 68.98C222.615 69.444 222.151 69.844 221.607 70.18L216.207 73.54L214.959 71.572L220.359 68.212ZM215.751 52.924H229.503V59.692H226.839V55.084H215.751V52.924ZM251.616 52.036V72.748H248.952V52.036H251.616ZM234.312 60.052C234.312 58.868 234.56 57.82 235.056 56.908C235.552 55.98 236.24 55.26 237.12 54.748C238.016 54.22 239.024 53.956 240.144 53.956C241.264 53.956 242.264 54.22 243.144 54.748C244.024 55.26 244.712 55.98 245.208 56.908C245.704 57.82 245.952 58.868 245.952 60.052C245.952 61.22 245.704 62.268 245.208 63.196C244.712 64.108 244.024 64.82 243.144 65.332C242.264 65.844 241.264 66.1 240.144 66.1C239.024 66.1 238.016 65.844 237.12 65.332C236.24 64.82 235.552 64.108 235.056 63.196C234.56 62.268 234.312 61.22 234.312 60.052ZM236.904 60.052C236.904 61.188 237.2 62.108 237.792 62.812C238.384 63.5 239.168 63.844 240.144 63.844C241.12 63.844 241.904 63.5 242.496 62.812C243.088 62.108 243.384 61.188 243.384 60.052C243.384 58.916 243.088 57.996 242.496 57.292C241.904 56.572 241.12 56.212 240.144 56.212C239.168 56.212 238.384 56.572 237.792 57.292C237.2 57.996 236.904 58.916 236.904 60.052ZM271.28 52.084V57.196H274.376V59.38H271.28V63.508H274.376V65.668H271.28V72.724H268.616V52.084H271.28ZM254.72 60.052C254.72 58.868 254.968 57.82 255.464 56.908C255.96 55.98 256.648 55.26 257.528 54.748C258.424 54.22 259.432 53.956 260.552 53.956C261.672 53.956 262.672 54.22 263.552 54.748C264.432 55.26 265.12 55.98 265.616 56.908C266.112 57.82 266.36 58.868 266.36 60.052C266.36 61.22 266.112 62.268 265.616 63.196C265.12 64.108 264.432 64.82 263.552 65.332C262.672 65.844 261.672 66.1 260.552 66.1C259.432 66.1 258.424 65.844 257.528 65.332C256.648 64.82 255.96 64.108 255.464 63.196C254.968 62.268 254.72 61.22 254.72 60.052ZM257.312 60.052C257.312 61.188 257.608 62.108 258.2 62.812C258.792 63.5 259.576 63.844 260.552 63.844C261.528 63.844 262.312 63.5 262.904 62.812C263.496 62.108 263.792 61.188 263.792 60.052C263.792 58.916 263.496 57.996 262.904 57.292C262.312 56.572 261.528 56.212 260.552 56.212C259.576 56.212 258.792 56.572 258.2 57.292C257.608 57.996 257.312 58.916 257.312 60.052ZM280.024 66.82H277.576L277.12 53.38H280.408L280.024 66.82ZM277.312 70.564C277.312 70.116 277.448 69.756 277.72 69.484C278.008 69.212 278.376 69.076 278.824 69.076C279.256 69.076 279.608 69.212 279.88 69.484C280.152 69.756 280.288 70.116 280.288 70.564C280.288 71.012 280.152 71.372 279.88 71.644C279.608 71.932 279.256 72.076 278.824 72.076C278.376 72.076 278.008 71.932 277.72 71.644C277.448 71.372 277.312 71.012 277.312 70.564Z" fill="#252525"/>
<path d="M97.0246 116.568V119.564H87.3926V127.936H83.6966V119.564H74.2326V116.568H97.0246ZM82.3246 108.392C82.9032 108.075 83.2672 107.813 83.4166 107.608C83.5659 107.403 83.6406 107.123 83.6406 106.768V106.6H76.8926V103.576H94.2246V106.6H87.4766V106.768C87.4766 107.123 87.5512 107.403 87.7006 107.608C87.8499 107.813 88.2139 108.075 88.7926 108.392L95.1206 112.144L93.3846 115.112L87.0566 111.36C86.5526 111.08 86.0579 110.716 85.5726 110.268C85.0126 110.753 84.5086 111.117 84.0606 111.36L77.7326 115.112L75.9966 112.144L82.3246 108.392ZM106.662 114.3C105.355 114.3 104.188 114.057 103.162 113.572C102.154 113.068 101.36 112.368 100.782 111.472C100.222 110.576 99.9418 109.559 99.9418 108.42C99.9418 107.281 100.222 106.264 100.782 105.368C101.36 104.453 102.154 103.744 103.162 103.24C104.188 102.736 105.355 102.484 106.662 102.484C107.968 102.484 109.126 102.736 110.134 103.24C111.16 103.744 111.963 104.453 112.542 105.368C113.12 106.264 113.41 107.281 113.41 108.42C113.41 109.559 113.12 110.576 112.542 111.472C111.963 112.368 111.16 113.068 110.134 113.572C109.126 114.057 107.968 114.3 106.662 114.3ZM98.9338 115.448H114.362V118.472H108.622V126.2H104.87V118.472H98.9338V115.448ZM103.554 108.42C103.554 109.297 103.834 109.997 104.394 110.52C104.972 111.043 105.728 111.304 106.662 111.304C107.614 111.304 108.37 111.043 108.93 110.52C109.508 109.997 109.798 109.297 109.798 108.42C109.798 107.543 109.508 106.843 108.93 106.32C108.37 105.779 107.614 105.508 106.662 105.508C105.728 105.508 104.972 105.779 104.394 106.32C103.834 106.843 103.554 107.543 103.554 108.42ZM115.902 102.68H119.598V127.04H115.902V102.68ZM145.587 113.964V116.652H122.795V113.964H145.587ZM125.931 117.856H142.283V123.876H129.655V125.192H142.983V127.712H125.959V121.552H138.615V120.376H125.931V117.856ZM126.211 103.1H142.395V109.12H129.907V110.324H142.871V112.872H126.267V106.768H138.727V105.62H126.211V103.1ZM173.353 102.708V107.58H176.657V110.576H173.353V115.56H169.629V102.708H173.353ZM158.289 108.588C158.719 108.177 158.989 107.869 159.101 107.664C159.213 107.44 159.269 107.16 159.269 106.824V106.516H154.481V103.492H167.389V106.516H162.825V106.824C162.825 107.16 162.881 107.431 162.993 107.636C163.105 107.841 163.385 108.159 163.833 108.588L168.397 112.928L165.989 115.448L161.425 111.108L161.033 110.716C161.033 110.716 160.903 110.847 160.641 111.108L156.105 115.448L153.697 112.928L158.289 108.588ZM157.337 116.54H173.353V123.344H161.061V124.828H173.997V127.656H157.393V120.712H169.685V119.34H157.337V116.54ZM204.088 102.708V107.552H207.392V110.576H204.088V115.616H200.364V102.708H204.088ZM188.744 108.252C189.173 107.785 189.444 107.44 189.556 107.216C189.668 106.992 189.724 106.712 189.724 106.376V103.548H193.42V106.376C193.42 106.712 193.476 106.992 193.588 107.216C193.7 107.421 193.98 107.757 194.428 108.224L198.796 112.872L196.276 115.224L191.908 110.632L191.572 110.268L191.264 110.604L186.896 115.224L184.376 112.872L188.744 108.252ZM188.072 116.568H204.088V123.428H191.796V124.856H204.732V127.74H188.128V120.74H200.42V119.424H188.072V116.568ZM229.517 102.708V127.068H225.793V102.708H229.517ZM209.301 117.548H211.401V107.692H209.301V104.752H223.189V107.692H221.089V117.548H223.189V120.516H209.301V117.548ZM217.477 117.548V107.692H215.041V117.548H217.477ZM252.566 102.708V112.256H256.178V115.336H252.566V127.068H248.842V102.708H252.566ZM236.886 112.76C237.409 112.032 237.745 111.472 237.894 111.08C238.044 110.688 238.118 110.184 238.118 109.568V107.832H233.33V104.808H246.602V107.832H241.842V109.568C241.842 110.184 241.908 110.688 242.038 111.08C242.188 111.472 242.524 112.032 243.046 112.76L247.582 118.92L244.782 120.992L240.246 114.776L239.966 114.384L239.686 114.776L235.15 120.992L232.35 118.92L236.886 112.76ZM263.24 119.62H259.74L259.096 103.716H263.772L263.24 119.62ZM259.516 124.38C259.516 123.783 259.702 123.307 260.076 122.952C260.449 122.579 260.925 122.392 261.504 122.392C262.082 122.392 262.549 122.579 262.904 122.952C263.277 123.325 263.464 123.801 263.464 124.38C263.464 124.959 263.277 125.435 262.904 125.808C262.549 126.181 262.082 126.368 261.504 126.368C260.925 126.368 260.449 126.181 260.076 125.808C259.702 125.435 259.516 124.959 259.516 124.38Z" fill="#FF0000"/>
</svg>
