<?xml version="1.0" encoding="UTF-8"?>
<svg id="_레이어_2" data-name="레이어 2" xmlns="http://www.w3.org/2000/svg" viewBox="0 0 2437.8 1888.67">
  <defs>
    <style>
      .cls-1 {
        fill: #ffde76;
      }

      .cls-2 {
        fill: #fff1be;
      }

      .cls-3, .cls-4 {
        fill: #fa0;
      }

      .cls-4 {
        font-family: PretendardVariable-ExtraBold, 'PretendardVariable ExtraBold';
        font-size: 450px;
        font-variation-settings: ';
        font-weight: 700;
      }
    </style>
  </defs>
  <g id="_로고" data-name="로고">
    <g>
      <path class="cls-2" d="m2039.85,239.78L1214.38,0,388.9,239.78s-208.43,1232.37,825.48,1648.89C2248.29,1472.15,2039.85,239.78,2039.85,239.78Z"/>
      <path class="cls-1" d="m1835.7,414.03l-621.32-180.48-621.32,180.48s-156.88,927.58,621.32,1241.08c778.2-313.5,621.32-1241.08,621.32-1241.08Z"/>
      <text class="cls-4" transform="translate(698.35 863.39)"><tspan x="0" y="0">KIDS</tspan></text>
      <g>
        <path class="cls-3" d="m257.08,1051.39c2.97,15.31,5.94,30.63,8.91,45.94-20.21-11.05-39.22-18.42-56.89-22.15-20.9-4.9-41.46-5.17-61.53-.8-40.46,8.81-70.56,32-89.61,68.95-18.45,34.05-22.47,70.64-12.78,109.64,9.83,39.61,31.5,70.66,64.34,93.64,30.72,20.73,61.01,27.73,91.52,21.02,24.23-5.33,42.95-17.23,56.39-35.92,14.63-20.46,19.37-44.33,13.92-71.69-1.76-8.83-3.52-17.65-5.29-26.48-39.7,7.93-79.32,16.36-118.85,25.31-2.28-10.09-4.57-20.19-6.85-30.28,52.13-11.8,104.41-22.71,156.81-32.75,11.06,57.75,22.11,115.5,33.17,173.25-10.31,1.97-20.61,3.98-30.9,6.03-4.42-13.65-8.85-27.3-13.29-40.94-7.96,15.05-17.13,27.48-27.55,37.29-16.15,15.3-35.12,25.32-57.09,30.19-40.08,8.88-78.68.31-116.84-25.84-39.1-26.2-65.39-63.35-77.95-112.18-12.92-50.24-7.34-96.99,17.94-139.98,25.25-42.95,64.03-70.5,115.35-81.67,22.44-4.89,45.26-5.7,68.29-2.43,11.99,1.54,28.29,5.46,48.78,11.87Z"/>
        <path class="cls-3" d="m323.35,1011.57c12.56-2.25,25.12-4.45,37.7-6.6,12.84,75.11,25.69,150.22,38.53,225.33,5.32,31.06,20.76,53.18,45.99,66.68,22.83,12.08,49.48,15.75,80.3,11.23,28.09-4.11,50.9-14.93,68.69-32.68,20.47-20.82,29.01-46.61,25.21-77.59-9.31-75.63-18.62-151.26-27.93-226.89,13.45-1.66,26.9-3.26,40.36-4.8,8.52,74.21,17.04,148.42,25.56,222.64,4.71,41.15-6.6,75.89-33.15,104.58-24.72,26.37-55.38,42.06-92.57,47.5-42.89,6.27-79.18.65-109.52-17.34-31.97-18.6-51.98-48.48-59.46-90.13-13.24-73.98-26.47-147.95-39.71-221.93Z"/>
        <path class="cls-3" d="m814.36,948.72c12.52-.97,25.04-1.9,37.56-2.78,55.71,113.98,108.1,228.88,157.13,344.56-13.92.58-27.84,1.21-41.75,1.91-16.24-39.43-32.85-78.78-49.82-118.04-46.23,2.76-92.43,6.19-138.58,10.3-11.61,41.39-22.83,82.83-33.66,124.29-13.12,1.3-26.24,2.65-39.35,4.06,32.66-121.79,68.81-243.27,108.47-364.31Zm90.96,195.29c-22.16-51.68-44.94-103.21-68.34-154.58-17.23,54.36-33.76,108.81-49.61,163.34,39.29-3.41,78.61-6.33,117.96-8.76Z"/>
        <path class="cls-3" d="m1033.56,936.54c42.18-1.41,84.38-2.29,126.58-2.62,33.89-.27,61.94,4.95,83.94,15.34,30.75,14.69,45.61,39.04,44.98,72.62-.42,23.1-7.64,41.86-21.44,56.36-13.82,14.51-35.68,25.95-65.52,34.63,5.34,2.1,10.04,4.14,14.12,6.1,4.07,1.97,7.35,4.16,9.85,6.57,10.91,9.06,19.39,22.35,25.42,39.81,15.1,40.67,29.79,81.4,44.09,122.21-13.47-.28-26.94-.5-40.42-.66-7.58-24.69-15.28-49.37-23.11-74.02-12.36-36.98-25.72-61.17-39.8-72.55-12.19-10.78-32.46-16.12-60.67-15.72-18.18.26-36.35.62-54.53,1.09,1.39,54.13,2.78,108.26,4.17,162.4-11.96.31-23.91.66-35.87,1.06-3.93-117.53-7.86-235.07-11.8-352.6Zm134.11,28.37c-31.57.21-63.15.71-94.71,1.53,1.12,43.79,2.25,87.57,3.37,131.36,18.91-.49,37.82-.86,56.73-1.12,22.69-.31,41.82-2.45,57.44-6.53,15.62-4.08,28.35-10.56,38.23-19.5,6.69-5.66,12.22-12.66,16.6-21.02,4.38-8.35,6.63-16.88,6.72-25.58.18-16.49-6.89-30.24-21.34-41.13-15.74-12.09-36.8-18.16-63.04-17.99Z"/>
        <path class="cls-3" d="m1349.8,935.56c30.62.92,61.24,2.13,91.85,3.61,33.86,1.65,61.98,7.26,84.19,16.53,9.19,3.92,17.83,8.64,25.9,14.18,8.06,5.54,15.54,12.03,22.44,19.48,16.48,17.8,28.33,38.65,35.63,62.45,7.29,23.8,9.75,48.26,7.56,73.36-4.9,55.91-25.39,98.3-60.46,127.79-35.39,28.89-81,41.5-137.84,38.79-26.62-1.26-53.25-2.29-79.89-3.1,3.54-117.7,7.09-235.39,10.63-353.09Zm75.3,33.92c-12.62-.57-25.24-1.1-37.87-1.58-3.67,96.98-7.35,193.96-11.02,290.94,19.65.74,39.3,1.61,58.94,2.61,34.4,1.74,64.1-8.1,89.64-29.78,29.76-25.28,46.91-61.95,50.73-110.41.75-9.57.9-18.58.45-27.05-.46-8.46-1.49-16.66-3.11-24.61-5.23-23.26-16.21-43.67-33.08-61.08-12.36-12.58-27.13-21.97-44.27-28.11-16.51-5.79-40-9.54-70.42-10.92Z"/>
        <path class="cls-3" d="m1689.91,957.93c12.66,1.25,25.32,2.55,37.98,3.9-12.47,116.94-24.95,233.87-37.42,350.81-11.76-1.25-23.52-2.46-35.28-3.63,11.58-117.03,23.15-234.06,34.73-351.09Z"/>
        <path class="cls-3" d="m1919.8,986.08c12.45,1.82,24.89,3.69,37.32,5.6,29.27,123.49,55.12,247.15,77.55,370.83-13.76-2.52-27.52-4.99-41.29-7.38-7.17-42.05-14.72-84.11-22.65-126.15-45.83-7.54-91.73-14.41-137.71-20.6-20.48,37.81-40.59,75.74-60.32,113.79-13.09-1.63-26.19-3.21-39.3-4.73,58.75-111.57,120.89-222.07,186.39-331.34Zm45.76,210.58c-10.25-55.31-21.13-110.6-32.65-165.88-28.85,49.21-57.04,98.66-84.57,148.33,39.13,5.36,78.2,11.21,117.22,17.54Z"/>
        <path class="cls-3" d="m2070.98,1369.32c22.15-115.5,44.3-230.99,66.45-346.49,11.57,2.22,23.14,4.48,34.7,6.78,57.94,113.09,110.96,227.12,159.04,341.75,24.08-96.64,48.16-193.29,72.24-289.93,11.47,2.86,22.93,5.76,34.38,8.7-29.25,113.91-58.49,227.81-87.74,341.72-10.64-2.73-21.29-5.43-31.95-8.08-47.29-114.27-99.5-227.97-156.62-340.75-19.42,97.53-38.85,195.07-58.27,292.6-10.74-2.14-21.49-4.24-32.24-6.3Z"/>
      </g>
    </g>
  </g>
</svg>